<svg width="251" height="35" viewBox="0 0 251 35" fill="#131c32" xmlns="http://www.w3.org/2000/svg">
<g clip-path="url(#clip0)">
<path d="M246 15.6H218.4V15.5L219.1 12L219.9 7.8L215.8 6.6C213.4 5.9 210.9 5.5 208.4 5.5C202.1 5.5 197 8.7 194.6 13.6L191.7 5.8H180.5L176.8 15.5H171.4V5.9H147.4V6.9C145.5 6.1 143.4 5.6 141 5.6C136.3 5.6 132.3 7.6 129.7 10.8L128.1 0.2H116L113 9L110 0.1H97.8L96.3 10.1C93.8 7.2 90.1 5.6 85.5 5.6C81.1 5.6 77.3 7.4 74.6 10.3C72.9 7.7 69.6 5.8 64.3 5.8C61.6 5.8 59.1 5.8 57.7 5.9L56.7 6C54.5 2.2 50.2 0 44.5 0C42 0 39.8 0.1 37.9 0.2L33.4 0.4V15.7H4.4C2 15.6 0 17.6 0 20C0 22.4 2 24.4 4.4 24.4H33.5V34.6H46.8V25.2C47.8 25 48.8 24.8 49.7 24.5H53.4V34.7H81.7C82.7 34.9 83.8 35 85 35C88 35 90.8 34.2 93 32.8L92.7 34.7H106.3L106.6 32.5L107.3 34.7H118.2L119.2 31.6L119.7 34.7H133.4L133.2 33.3C135.3 34.4 137.7 35 140.5 35C145.9 35 150.4 32.5 152.9 28.5V34.7H166.2V24.4H173.6L169.8 34.5H183.8L185.2 30.8H186.8L188.2 34.5H202.6L202.4 34C204 34.5 205.8 34.8 207.8 34.8C211 34.8 213.9 34.3 216.7 33.2L219.7 32.1V28.9V24.4H246C248.4 24.4 250.4 22.4 250.4 20C250.4 17.6 248.5 15.6 246 15.6Z" fill="#d2d6d9"/>
<path d="M44.5 4.6001C42.1 4.6001 40 4.7001 38.1 4.7001V29.8001H42.1V20.5001C42.7 20.6001 43.4 20.6001 44 20.6001C49.9 20.6001 53.8 16.9001 53.8 12.1001C53.7 7.6001 50.5 4.6001 44.5 4.6001ZM43.9 17.3001C43.3 17.3001 42.7 17.2001 42.1 17.2001V8.0001C42.8 8.0001 43.4 8.0001 44.2 8.0001C47.9 8.0001 49.5 9.7001 49.5 12.6001C49.5 15.5001 47.3 17.3001 43.9 17.3001Z" fill="#131c32"/>
<path d="M66.3 21.3001C69.4 20.8001 71.6 18.9001 71.6 15.7001C71.6 12.1001 68.9 10.4001 64.3 10.4001C61.9 10.4001 59.4 10.4001 58 10.5001V29.9001H62V21.9001H62.2L67.8 29.9001H72.7L67.9 23.4001C67.3 22.6001 66.8 21.8001 66.3 21.3001ZM62 19.1001V13.5001C62.5 13.4001 63 13.4001 63.7 13.4001C66 13.4001 67.4 14.3001 67.4 16.1001C67.4 17.9001 66 19.2001 63.9 19.2001C63.2 19.2001 62.6 19.2001 62 19.1001Z" fill="#131c32"/>
<path d="M85.5 10.2002C80.1 10.2002 75.5 14.0002 75.5 20.4002C75.5 26.2002 78.6 30.2002 84.9 30.2002C90.5 30.2002 95 26.4002 95 20.0002C95 13.5002 91.2 10.2002 85.5 10.2002ZM85.1 26.7002C81.3 26.7002 79.7 23.8002 79.7 20.1002C79.7 15.9002 82.3 13.7002 85.2 13.7002C88.5 13.7002 90.7 16.0002 90.7 20.3002C90.8 24.6002 88.2 26.7002 85.1 26.7002Z" fill="#131c32"/>
<path d="M141.1 10.2002C135.7 10.2002 131.1 14.0002 131.1 20.4002C131.1 26.2002 134.2 30.2002 140.5 30.2002C146.1 30.2002 150.6 26.4002 150.6 20.0002C150.6 13.5002 146.7 10.2002 141.1 10.2002ZM140.7 26.7002C136.9 26.7002 135.3 23.8002 135.3 20.1002C135.3 15.9002 137.9 13.7002 140.8 13.7002C144.1 13.7002 146.3 16.0002 146.3 20.3002C146.3 24.6002 143.8 26.7002 140.7 26.7002Z" fill="#131c32"/>
<path d="M183.9 10.5L176.6 29.9H180.6L182 26.2H190.1L191.5 29.9H196L188.7 10.5H183.9ZM182.9 23.3L185 17.8C185.4 16.8 185.7 15.7 186 14.8C186.3 15.7 186.6 16.9 187 17.9L189 23.4H182.9V23.3Z" fill="#131c32"/>
<path d="M211 19.7001V26.2001C210.2 26.4001 209.2 26.6001 208.2 26.6001C204.6 26.6001 202.1 24.3001 202.1 20.2001C202.1 15.8001 205 13.5001 208.6 13.5001C210.5 13.5001 212.2 13.9001 213.9 14.5001L214.6 11.0001C212.6 10.4001 210.6 10.1001 208.6 10.1001C201.9 10.1001 197.9 14.7001 197.9 20.5001C197.9 26.8001 202.1 30.1001 207.9 30.1001C210.5 30.1001 212.9 29.7001 215.1 28.8001V19.7001H211V19.7001Z" fill="#131c32"/>
<path d="M119.3 4.80005L114.3 19.5C113.7 21.4 113.3 22.6 112.9 24.5H112.8C112.5 22.9 112 21.2 111.4 19.4L106.6 4.90005H101.8L98 30H102.1L103.7 17C104 14.6 104.2 12.6 104.4 10.5H104.5C104.8 12.3 105.4 14.5 106.1 16.5L110.6 30H114.8L119.5 15.4C120.1 13.5 120.5 11.9 120.8 10.5H120.9C121.1 12.1 121.3 14 121.7 16.6L123.7 30H128L124.2 4.90005H119.3V4.80005Z" fill="#131c32"/>
<path d="M152.2 14H157.6V29.9H161.6V14H166.9V10.5H152.2V14Z" fill="#131c32"/>
</g>
<defs>
<clipPath id="clip0">
<rect width="250.4" height="34.9" fill="#131c32"/>
</clipPath>
</defs>
</svg>
