<?xml version="1.0" encoding="utf-8"?>
<!-- Generator: Adobe Illustrator 24.0.2, SVG Export Plug-In . SVG Version: 6.00 Build 0)  -->
<svg version="1.1" id="Ebene_1" xmlns="http://www.w3.org/2000/svg" xmlns:xlink="http://www.w3.org/1999/xlink" x="0px" y="0px"
	 width="104.5px" height="141px" viewBox="0 0 104.5 141" style="enable-background:new 0 0 104.5 141;" xml:space="preserve">
<style type="text/css">
	.st0{fill:#d2d6d9;stroke:#131c32;stroke-width:0.3;stroke-miterlimit:10;}
	.st1{fill:#131c32;}
	.st2{fill:#d2d6d9;}
</style>
<g>
	<polygon class="st0" points="104.3,99.2 0.2,140.8 0.2,41.8 104.3,0.2 	"/>
</g>
<g>
	<polygon class="st1" points="96.9,93.6 7.6,129.2 7.6,47.5 96.9,11.8 	"/>
</g>
<g>
	<g>
		<path class="st2" d="M12.1,91.4v-2.5h1.8v-9.6h-1.8v-2.5h6.6c1.5,0,2.6,0.1,3.3,0.3s1.3,0.6,1.9,1.2s0.8,1.4,0.8,2.3
			c0,1.4-0.7,2.4-2,3c1.7,0.6,2.6,1.8,2.6,3.5c0,1-0.3,1.8-0.8,2.5s-1.2,1.2-2.1,1.4s-2,0.4-3.6,0.4H12.1z M17.7,82.6h1.1
			c0.7,0,1.3-0.1,1.6-0.4s0.5-0.7,0.5-1.3c0-0.6-0.2-1-0.5-1.2s-0.9-0.4-1.8-0.4h-0.9C17.7,79.3,17.7,82.6,17.7,82.6z M17.7,88.9
			h1.1c1,0,1.6-0.1,2-0.4s0.6-0.8,0.6-1.5s-0.2-1.3-0.6-1.6c-0.4-0.3-1.1-0.4-2-0.4h-1.1V88.9z"/>
		<path class="st2" d="M39.4,89.1v2.3h-4.9v-0.8c-0.9,0.6-1.8,0.9-2.8,0.9s-1.9-0.3-2.6-0.9C28.4,90,28,89.3,28,88.3
			s0.4-1.8,1.1-2.4s1.8-1,3-1c0.7,0,1.5,0.2,2.3,0.5v-0.6c0-0.5-0.2-0.9-0.5-1.3c-0.3-0.3-0.8-0.5-1.4-0.5c-0.7,0-1.3,0.3-1.9,0.8
			L28,83.3c0.8-1.6,2.4-2.4,4.9-2.4c1,0,1.8,0.1,2.4,0.3c0.6,0.2,1.1,0.5,1.4,0.9c0.3,0.3,0.5,0.7,0.7,1.1s0.2,1.1,0.2,2v3.7h1.8
			C39.4,88.9,39.4,89.1,39.4,89.1z M34.5,87.6c-0.8-0.5-1.4-0.7-1.9-0.7c-0.4,0-0.7,0.1-1,0.3c-0.3,0.2-0.5,0.5-0.5,0.9
			s0.1,0.7,0.4,1c0.2,0.3,0.6,0.4,0.9,0.4c0.6,0,1.3-0.4,2-1.1L34.5,87.6L34.5,87.6z"/>
		<path class="st2" d="M53.4,89.1v2.3h-4.9v-0.9c-1,0.7-2,1-2.9,1c-1,0-1.7-0.3-2.3-0.8s-0.8-1.3-0.8-2.3v-4.8H41v-2.3h4.7v6.3
			c0,0.5,0.1,0.8,0.2,1s0.4,0.3,0.8,0.3c0.5,0,1.1-0.2,1.8-0.7v-4.6h-1.6v-2.3h4.8v7.8H53.4z"/>
		<path class="st2" d="M63.7,88.3l2.5,0.8c-1.1,1.7-2.7,2.5-4.9,2.5c-1.8,0-3.2-0.5-4.2-1.4c-1-0.9-1.5-2.2-1.5-3.7
			c0-1.6,0.5-2.9,1.5-3.9c1-1,2.3-1.6,3.9-1.6c1.2,0,2.2,0.3,3,0.9c0.8,0.6,1.4,1.3,1.8,2.2s0.5,1.8,0.5,2.9h-7.5
			c0,0.9,0.3,1.6,0.9,2s1.1,0.6,1.7,0.6C62.1,89.5,62.9,89.1,63.7,88.3z M63,85.2c-0.1-0.6-0.3-1-0.7-1.4c-0.4-0.4-0.9-0.6-1.5-0.6
			c-1.2,0-1.9,0.7-2.1,2H63z"/>
		<path class="st2" d="M75.5,89.1v2.3h-7.1v-2.3h1.9v-5.5h-1.8v-2.3h4.8v2.6c0.2-0.7,0.6-1.4,1.2-1.9s1.4-0.8,2.3-0.8
			c0.1,0,0.3,0,0.5,0v3c-0.8,0-1.5,0.1-2,0.3c-0.5,0.2-0.9,0.6-1.3,1.2c-0.3,0.6-0.5,1.3-0.5,2.2v1.2L75.5,89.1L75.5,89.1z"/>
		<path class="st2" d="M80.1,83.6v-2.3h4.8v0.9c1-0.7,2-1.1,3-1.1c2,0,3.1,1.3,3.1,3.9v4h1.5v2.3h-4.8v-6.1c0-0.6-0.1-0.9-0.2-1.1
			s-0.4-0.3-0.7-0.3c-0.6,0-1.2,0.2-1.8,0.7v4.6h1.6v2.3h-6.3v-2.3h1.5v-5.5H80.1z"/>
	</g>
	<g>
		<path class="st2" d="M12.8,74.9v-1.4h1V68h-1v-1.4h3.8c0.8,0,1.5,0,1.9,0.1s0.8,0.3,1.1,0.7c0.3,0.4,0.5,0.8,0.5,1.3
			c0,0.8-0.4,1.4-1.2,1.7c1,0.4,1.5,1,1.5,2c0,0.6-0.2,1-0.5,1.4s-0.7,0.7-1.2,0.8c-0.5,0.1-1.2,0.2-2.1,0.2h-3.8
			C12.8,74.8,12.8,74.9,12.8,74.9z M16,69.9h0.6c0.4,0,0.7-0.1,0.9-0.2c0.2-0.1,0.3-0.4,0.3-0.8c0-0.3-0.1-0.6-0.3-0.7
			c-0.2-0.1-0.5-0.2-1-0.2H16V69.9z M16,73.5h0.6c0.6,0,0.9-0.1,1.2-0.2c0.2-0.2,0.3-0.4,0.3-0.8s-0.1-0.7-0.4-0.9
			c-0.2-0.2-0.6-0.3-1.1-0.3H16V73.5z"/>
		<path class="st2" d="M28.4,73.6v1.3h-2.8v-0.5c-0.5,0.4-1,0.5-1.6,0.5s-1.1-0.2-1.5-0.5s-0.6-0.8-0.6-1.3c0-0.6,0.2-1,0.7-1.4
			c0.4-0.4,1-0.6,1.7-0.6c0.4,0,0.8,0.1,1.3,0.3V71c0-0.3-0.1-0.5-0.3-0.7S24.8,70,24.5,70c-0.4,0-0.8,0.2-1.1,0.5l-1.5-0.3
			c0.4-0.9,1.4-1.4,2.8-1.4c0.6,0,1,0.1,1.4,0.2s0.6,0.3,0.8,0.5s0.3,0.4,0.4,0.7c0.1,0.2,0.1,0.6,0.1,1.2v2.1h1V73.6z M25.6,72.8
			c-0.4-0.3-0.8-0.4-1.1-0.4c-0.2,0-0.4,0.1-0.6,0.2s-0.3,0.3-0.3,0.5s0.1,0.4,0.2,0.5c0.1,0.2,0.3,0.2,0.5,0.2
			c0.3,0,0.7-0.2,1.2-0.6L25.6,72.8L25.6,72.8z"/>
		<path class="st2" d="M30.1,77.5v-1.3h1.1l0.4-1l-2.1-4.7h-0.8v-1.3h3.5v1.3h-0.7l1,2.6l1-2.6h-0.8v-1.3h3.1v1.3H35l-2.8,7.1
			L30.1,77.5L30.1,77.5z"/>
		<path class="st2" d="M41,73.2l1.4,0.5c-0.6,0.9-1.5,1.4-2.8,1.4c-1,0-1.8-0.3-2.4-0.8s-0.9-1.3-0.9-2.1c0-0.9,0.3-1.6,0.9-2.2
			c0.6-0.6,1.3-0.9,2.3-0.9c0.7,0,1.2,0.2,1.7,0.5s0.8,0.8,1,1.3s0.3,1.1,0.3,1.7h-4.3c0,0.5,0.2,0.9,0.5,1.1s0.6,0.3,1,0.3
			C40.1,73.9,40.6,73.6,41,73.2z M40.7,71.4c0-0.3-0.2-0.6-0.4-0.8c-0.2-0.2-0.5-0.3-0.9-0.3c-0.7,0-1.1,0.4-1.2,1.2L40.7,71.4
			L40.7,71.4z"/>
		<path class="st2" d="M47.8,73.6v1.3h-4.1v-1.3h1.1v-3.1h-1v-1.3h2.7v1.5c0.1-0.4,0.3-0.8,0.7-1.1c0.4-0.3,0.8-0.5,1.3-0.5
			c0.1,0,0.2,0,0.3,0v1.8c-0.5,0-0.9,0.1-1.1,0.2c-0.3,0.1-0.5,0.3-0.7,0.7c-0.2,0.4-0.3,0.8-0.3,1.2v0.7L47.8,73.6L47.8,73.6z"/>
		<path class="st2" d="M50.2,70.4v-1.3h2.7v4.5h0.9v1.3h-3.6v-1.3h0.9v-3.1L50.2,70.4L50.2,70.4z M51.1,67.4c0-0.3,0.1-0.5,0.3-0.7
			s0.4-0.3,0.7-0.3s0.5,0.1,0.7,0.3c0.2,0.2,0.3,0.4,0.3,0.7s-0.1,0.5-0.3,0.7s-0.4,0.3-0.7,0.3s-0.5-0.1-0.7-0.3
			C51.2,68,51.1,67.7,51.1,67.4z"/>
		<path class="st2" d="M55.3,74.9v-2h1.4c0,0.3,0.1,0.5,0.4,0.7c0.2,0.2,0.5,0.2,0.9,0.2c0.3,0,0.5-0.1,0.7-0.2s0.3-0.2,0.3-0.4
			c0-0.2-0.1-0.3-0.2-0.4c-0.2-0.1-0.5-0.2-0.9-0.2c-0.9-0.2-1.6-0.4-2-0.7c-0.4-0.3-0.6-0.7-0.6-1.2s0.2-0.9,0.6-1.2
			c0.4-0.3,0.9-0.5,1.6-0.5c0.5,0,1,0.1,1.5,0.3v-0.2h1.3v1.7H59c-0.1-0.4-0.5-0.6-1.3-0.6c-0.5,0-0.8,0.1-0.8,0.4
			c0,0.1,0.1,0.2,0.2,0.3s0.4,0.1,0.8,0.2c0.7,0.1,1.3,0.2,1.6,0.4s0.6,0.3,0.9,0.6s0.3,0.6,0.3,1c0,0.6-0.2,1-0.6,1.4
			s-1,0.5-1.7,0.5s-1.2-0.1-1.4-0.4v0.3L55.3,74.9L55.3,74.9z"/>
		<path class="st2" d="M67.8,69.1v2.4h-1.3c-0.3-0.6-0.8-1-1.4-1c-0.4,0-0.7,0.1-1,0.4c-0.2,0.3-0.4,0.6-0.4,1.1s0.1,1,0.4,1.2
			c0.3,0.3,0.6,0.4,0.9,0.4s0.6-0.1,0.8-0.3c0.3-0.2,0.5-0.4,0.6-0.7l1.4,0.6C67.3,74.4,66.3,75,65,75c-1,0-1.8-0.3-2.4-0.8
			c-0.6-0.6-0.9-1.3-0.9-2.2s0.3-1.7,0.9-2.2s1.3-0.8,2.1-0.8c0.6,0,1.2,0.2,1.8,0.6v-0.5H67.8z"/>
		<path class="st2" d="M69.1,74.9v-1.3H70v-5.7h-0.9v-1.3h2.8v3c0.6-0.4,1.1-0.6,1.7-0.6c1.2,0,1.8,0.7,1.8,2.1v2.5h0.9v1.3h-2.7
			v-3.7c0-0.3,0-0.5-0.1-0.6s-0.2-0.2-0.4-0.2c-0.3,0-0.6,0.1-1,0.4v2.7h0.8v1.3L69.1,74.9L69.1,74.9z"/>
		<path class="st2" d="M82,73.2l1.4,0.5c-0.6,0.9-1.5,1.4-2.8,1.4c-1,0-1.8-0.3-2.4-0.8s-0.9-1.3-0.9-2.1c0-0.9,0.3-1.6,0.9-2.2
			s1.3-0.9,2.3-0.9c0.7,0,1.2,0.2,1.7,0.5s0.8,0.8,1,1.3s0.3,1.1,0.3,1.7h-4.3c0,0.5,0.2,0.9,0.5,1.1s0.6,0.3,1,0.3
			C81.1,73.9,81.6,73.6,82,73.2z M81.7,71.4c0-0.3-0.2-0.6-0.4-0.8c-0.2-0.2-0.5-0.3-0.9-0.3c-0.7,0-1.1,0.4-1.2,1.2L81.7,71.4
			L81.7,71.4z"/>
		<path class="st2" d="M84.9,70.4v-1.3h2.7v0.5c0.6-0.4,1.1-0.6,1.7-0.6c1.2,0,1.8,0.7,1.8,2.2v2.3H92v1.3h-2.7v-3.5
			c0-0.3,0-0.5-0.1-0.6s-0.2-0.2-0.4-0.2c-0.3,0-0.7,0.1-1.1,0.4v2.6h0.9v1.3H85v-1.3h0.9v-3.1C85.9,70.4,84.9,70.4,84.9,70.4z"/>
	</g>
	<g>
		<path class="st2" d="M12.5,52.6V50h7.2v2.5h-1.5v6.8c0,0.9,0,1.6,0.1,2s0.3,0.7,0.6,1c0.3,0.3,0.7,0.4,1.2,0.4s0.9-0.1,1.3-0.4
			s0.6-0.6,0.7-0.9c0.1-0.4,0.1-1.1,0.1-2.3v-6.6h-1.5V50h6v2.5h-1.8V60c0,1-0.1,1.8-0.2,2.2c-0.1,0.5-0.4,0.9-0.7,1.4
			c-0.4,0.5-1,0.8-1.7,1.1s-1.6,0.4-2.6,0.4c-1.1,0-2.1-0.2-2.8-0.5c-0.8-0.3-1.4-0.7-1.8-1.3c-0.4-0.5-0.6-1-0.7-1.6
			c-0.1-0.5-0.2-1.4-0.2-2.6v-6.8h-1.7C12.5,52.3,12.5,52.6,12.5,52.6z"/>
		<path class="st2" d="M28.8,57v-2.4h5v1c1-0.8,2-1.1,3.1-1.1c2.1,0,3.2,1.4,3.2,4.1v4.2h1.6v2.4h-4.9v-6.4c0-0.6-0.1-1-0.2-1.2
			c-0.2-0.2-0.4-0.3-0.8-0.3c-0.6,0-1.3,0.2-1.9,0.7v4.7h1.6v2.4h-6.6v-2.4h1.6V57H28.8z"/>
		<path class="st2" d="M44.1,65.1v-3.6h2.5c0,0.5,0.2,0.9,0.7,1.2c0.4,0.3,1,0.4,1.6,0.4c0.5,0,1-0.1,1.3-0.3s0.5-0.4,0.5-0.7
			s-0.1-0.5-0.4-0.6c-0.3-0.2-0.8-0.3-1.7-0.4c-1.7-0.3-2.9-0.7-3.7-1.3s-1.1-1.3-1.1-2.2s0.4-1.6,1.1-2.2s1.6-0.9,2.8-0.9
			c0.9,0,1.8,0.2,2.7,0.5v-0.4h2.4v3h-2.4c-0.2-0.7-1-1.1-2.3-1.1c-1,0-1.5,0.3-1.5,0.8c0,0.2,0.1,0.4,0.3,0.5s0.7,0.2,1.5,0.4
			c1.3,0.2,2.3,0.4,2.9,0.7c0.6,0.2,1.2,0.6,1.5,1.1c0.4,0.5,0.6,1.1,0.6,1.9c0,1-0.4,1.9-1.1,2.5c-0.7,0.7-1.8,1-3.1,1
			s-2.1-0.3-2.6-0.8v0.5H44.1z"/>
		<path class="st2" d="M64.3,62l2.6,0.8c-1.1,1.7-2.8,2.6-5.1,2.6c-1.9,0-3.3-0.5-4.3-1.5s-1.6-2.3-1.6-3.8c0-1.6,0.5-3,1.6-4.1
			s2.4-1.6,4.1-1.6c1.2,0,2.2,0.3,3.1,0.9c0.9,0.6,1.5,1.4,1.8,2.3c0.3,0.9,0.5,1.9,0.5,3h-7.8c0.1,1,0.4,1.6,0.9,2
			c0.6,0.4,1.1,0.6,1.8,0.6C62.6,63.2,63.4,62.8,64.3,62z M63.6,58.7c-0.1-0.6-0.3-1.1-0.7-1.5s-0.9-0.6-1.6-0.6
			c-1.2,0-1.9,0.7-2.1,2.1H63.6z"/>
		<path class="st2" d="M76.6,62.7v2.4h-7.4v-2.4h1.9V57h-1.8v-2.4h4.9v2.7c0.2-0.8,0.6-1.4,1.3-2c0.7-0.6,1.5-0.8,2.4-0.8
			c0.2,0,0.3,0,0.5,0v3.2c-0.8,0-1.5,0.1-2.1,0.3c-0.5,0.2-1,0.6-1.3,1.2c-0.3,0.6-0.5,1.4-0.5,2.3v1.3L76.6,62.7L76.6,62.7z"/>
		<path class="st2" d="M88.7,62l2.6,0.8c-1.1,1.7-2.8,2.6-5.1,2.6c-1.9,0-3.3-0.5-4.3-1.5s-1.6-2.3-1.6-3.8c0-1.6,0.5-3,1.6-4.1
			s2.4-1.6,4.1-1.6c1.2,0,2.2,0.3,3.1,0.9s1.5,1.4,1.8,2.3c0.3,0.9,0.5,1.9,0.5,3h-7.8c0.1,1,0.4,1.6,0.9,2c0.6,0.4,1.1,0.6,1.8,0.6
			C87.1,63.2,87.9,62.8,88.7,62z M88.1,58.7c-0.1-0.6-0.3-1.1-0.7-1.5s-0.9-0.6-1.6-0.6c-1.2,0-1.9,0.7-2.1,2.1H88.1z"/>
	</g>
</g>
</svg>
