<svg version="1.1" xmlns="http://www.w3.org/2000/svg"
	 x="0px" y="0px" width="668.474px" height="329px" viewBox="22.5 200.499 668.474 329"
	 enable-background="new 22.5 200.499 668.474 329" xml:space="preserve">
<g id="SOS_Kinderdorf">
	<g>
		<g>
			<g>
				<path fill="#d2d6d9" d="M222.606,336.468c0,7.848,5.779,10.919,12.916,10.919c7.85,0,10.773-3.857,10.773-7.707
					c0-3.925-2.136-5.494-4.212-6.283c-3.567-1.354-8.203-2.282-15.198-4.21c-8.707-2.351-11.274-7.637-11.274-12.915
					c0-10.205,9.416-14.988,18.624-14.988c10.632,0,19.555,5.64,19.555,16.272h-8.923c-0.427-6.563-4.85-8.989-10.985-8.989
					c-4.144,0-9.351,1.498-9.351,6.636c0,3.569,2.427,5.563,6.067,6.563c0.786,0.216,12.062,3.143,14.699,3.927
					c6.705,1.996,9.917,7.704,9.917,12.987c0,11.418-10.13,15.984-20.263,15.984c-11.635,0-21.056-5.566-21.269-18.196H222.606
					L222.606,336.468z"/>
				<path fill="#d2d6d9" d="M309.804,327.974c0,14.556-9.136,26.69-24.405,26.69c-15.271,0-24.405-12.135-24.405-26.69
					c0-14.555,9.136-26.69,24.405-26.69S309.804,313.419,309.804,327.974z M269.91,327.974c0,9.778,4.57,19.413,15.487,19.413
					c10.919,0,15.482-9.635,15.482-19.413c0-9.772-4.563-19.407-15.482-19.407C274.481,308.566,269.91,318.201,269.91,327.974z"/>
				<path fill="#d2d6d9" d="M324.141,336.468c0,7.848,5.78,10.919,12.916,10.919c7.849,0,10.771-3.857,10.771-7.707
					c0-3.925-2.136-5.494-4.204-6.283c-3.566-1.354-8.205-2.282-15.202-4.21c-8.704-2.351-11.27-7.637-11.27-12.915
					c0-10.205,9.416-14.988,18.618-14.988c10.634,0,19.554,5.64,19.554,16.272h-8.92c-0.422-6.563-4.85-8.989-10.985-8.989
					c-4.141,0-9.35,1.498-9.35,6.636c0,3.569,2.429,5.563,6.064,6.563c0.787,0.216,12.061,3.143,14.701,3.927
					c6.702,1.996,9.915,7.704,9.915,12.987c0,11.418-10.133,15.984-20.264,15.984c-11.634,0-21.055-5.566-21.268-18.196H324.141
					L324.141,336.468z"/>
			</g>
			<g>
				<path fill="#d2d6d9" d="M216.755,366.715h8.92v23.188l22.691-23.188h10.988l-20.338,20.34l21.764,30.611h-11.13l-16.697-24.334
					l-7.278,7.203v17.131h-8.92V366.715z"/>
				<path fill="#d2d6d9" d="M267.417,366.715h8.917v50.951h-8.917V366.715z"/>
				<path fill="#d2d6d9" d="M288.395,366.715h9.418l23.263,37.539h0.146v-37.539h8.488v50.951h-9.42l-23.191-37.463h-0.216v37.463
					h-8.488V366.715z"/>
				<path fill="#d2d6d9" d="M341.478,366.715h21.121c15.707,0,22.479,11.42,22.479,25.477c0,14.061-6.772,25.475-22.479,25.475
					h-21.121V366.715z M350.399,410.383h8.776c13.986,0,16.982-7.986,16.982-18.191c0-10.204-2.996-18.193-16.982-18.193h-8.776
					V410.383z"/>
				<path fill="#d2d6d9" d="M393.923,366.715h36.682v7.709H402.84v13.345h25.694v7.274H402.84v14.918h28.266v7.705h-37.183V366.715
					L393.923,366.715z"/>
				<path fill="#d2d6d9" d="M440.876,366.715h24.327c11.137,0,16.844,5.135,16.844,13.771c0,9.778-6.774,12.276-8.419,12.847v0.145
					c3.065,0.432,7.565,2.714,7.565,10.777c0,5.924,0.854,11.338,2.777,13.412h-9.564c-1.354-2.213-1.354-4.994-1.354-7.488
					c0-9.35-1.922-13.489-10.125-13.489h-13.135v20.978h-8.917V366.715z M449.793,389.904h14.63c5.636,0,8.702-2.78,8.702-8.131
					c0-6.499-4.211-7.776-8.847-7.776h-14.485V389.904z"/>
				<path fill="#d2d6d9" d="M492.396,366.715h21.114c15.704,0,22.479,11.42,22.479,25.477c0,14.061-6.775,25.475-22.479,25.475
					h-21.114V366.715z M501.313,410.383h8.773c13.989,0,16.988-7.986,16.988-18.191c0-10.204-2.999-18.193-16.988-18.193h-8.773
					V410.383z"/>
				<path fill="#d2d6d9" d="M591.573,392.191c0,14.56-9.133,26.688-24.406,26.688c-15.264,0-24.396-12.131-24.396-26.688
					c0-14.556,9.134-26.688,24.396-26.688C582.44,365.504,591.573,377.635,591.573,392.191z M551.688,392.191
					c0,9.776,4.566,19.408,15.479,19.408c10.927,0,15.49-9.632,15.49-19.408c0-9.774-4.563-19.409-15.49-19.409
					C556.254,372.782,551.688,382.417,551.688,392.191z"/>
				<path fill="#d2d6d9" d="M600.277,366.715h24.332c11.135,0,16.845,5.135,16.845,13.771c0,9.778-6.78,12.276-8.424,12.847v0.145
					c3.071,0.432,7.565,2.714,7.565,10.777c0,5.924,0.857,11.338,2.78,13.412h-9.558c-1.356-2.213-1.356-4.994-1.356-7.488
					c0-9.35-1.933-13.489-10.136-13.489h-13.13v20.978h-8.92L600.277,366.715L600.277,366.715z M609.197,389.904h14.628
					c5.642,0,8.709-2.78,8.709-8.131c0-6.499-4.215-7.776-8.848-7.776h-14.489V389.904L609.197,389.904z"/>
				<path fill="#d2d6d9" d="M652.8,366.715h35.174v7.709h-26.259v13.345h23.049v7.274h-23.049v22.623H652.8V366.715z"/>
			</g>
		</g>
		<path fill="#d2d6d9" d="M120.241,362.493c0.311-0.135,0.659-0.135,0.965,0s0.554,0.387,0.662,0.709
			c0.092,0.262,2.237,6.541-0.675,13.33c-2.878,6.707-9.368,10.733-9.638,10.899c-0.334,0.208-0.751,0.237-1.104,0.087
			c-0.355-0.156-0.618-0.475-0.707-0.866c-0.061-0.308-1.62-7.788,1.255-14.498C113.916,365.368,119.988,362.611,120.241,362.493
			 M101.174,371.189c2.967,6.681,1.513,14.171,1.446,14.481c-0.074,0.392-0.338,0.707-0.689,0.867
			c-0.356,0.153-0.765,0.127-1.105-0.066c-0.271-0.159-6.816-4.102-9.786-10.775c-3.001-6.754-0.902-13.068-0.812-13.345
			c0.109-0.319,0.348-0.573,0.654-0.707c0.303-0.134,0.655-0.134,0.958,0C92.107,361.749,98.172,364.445,101.174,371.189z
			 M175.212,399.816h-42.938l-0.29,0.987c0,0-2.476,7.578-7.184,6.348c-4.376-1.141-2.556-7.23-2.556-7.23l0.024-0.104h-14.902v8.34
			h-2.4v-8.34H91.344l0.461,2.044c0,0,0.856,3.793-2.51,5.181c-3.503,1.445-5.518-3.39-5.518-3.39s-0.773-1.651-1.703-3.835H36.167
			v-2.408h44.915c-0.34-0.865-0.679-1.754-0.977-2.619c-1.421-4.092-3.289-11.211-3.673-11.444c-0.395-0.243-3.183-0.261-6.41-0.646
			c-3.227-0.39-5.41-1.427-5.792-1.334c-0.913,0.221-7.729,9.075-12.204,9.971c-4.478,0.894-9.131-4.844-9.131-4.844l-5.514-7.193
			c0,0-2.118-2.83-0.556-4.396c1.946-1.953,3.84-0.506,3.84-0.506s7.464,4.842,8.273,5.331c0.602,0.364,0.797,0.062,0.797,0.062
			s1.216-1.166,1.788-1.879c0.422-0.521,0.047-0.836,0.047-0.836s-3.678-3.66-5.116-5.127c-1.21-1.244-0.106-3.085-0.106-3.085
			l10.922-21.756l-14.316,3.009c0,0-2.736,0.675-3.348-1.171c-0.606-1.838,2.118-3.339,2.118-3.339l18.887-11.088
			c0,0,0.831-0.556,1.225-0.615c0.384-0.05,1.113,0.338,1.113,0.338s2.613,2.061,6.237,1.944c3.624-0.114,5.682-2.282,5.682-2.282
			s0.501-0.501,1.171-0.615c0.667-0.109,2.283,1.627,2.283,1.627l16.771,18.595c0,0,1.806,2.004,0.437,3.732
			c-1.204,1.536-3.837-0.111-3.837-0.111s-10.584-6.34-10.974-6.459c-0.39-0.109-0.28,0.441-0.28,0.441l10.371,46.295h14.156
			v-48.702c-1.04-0.689-6.584-4.861-6.584-14.913c0-10.822,6.562-15.026,6.837-15.195c0.414-0.261,0.939-0.261,1.354,0
			c0.276,0.169,6.838,4.373,6.838,15.195c0,8.863-4.313,13.152-6.045,14.521v49.094h15.406l6.282-30.068
			c0,0,3.587-16.957,3.389-17.085c-0.216-0.129-12.839,8.062-12.839,8.062s-1.741,1.672-3.579-0.077
			c-1.839-1.764,0.833-4.145,0.833-4.145l15.962-18.589c0,0,0.575-0.685,1.25-0.625c0.934,0.084,1.042,0.709,1.042,0.709
			s1.758,4.515,2.016,4.515c0.245,0,2.624-2.505,2.624-2.505s1.206-1.216,1.873-1.298c0.672-0.087,1.007,0.499,1.007,0.499
			l2.595,3.718c0,0,0.628,0.881,0.791,0.836c0.166-0.042,0.377-0.416,0.377-0.416l3.007-5.646c0,0,0.627-1.33,1.252-1.796
			c0.629-0.457,1.924,0.382,1.924,0.382l18.122,10.896c0,0,2.514,1.139,1.807,3.56c-0.81,2.764-5.014,1.337-5.014,1.337
			s-12.494-2.59-12.652-2.429c-0.174,0.169,0.158,0.628,0.158,0.628s9.819,22.265,9.732,23.604c-0.068,1.092-1.29,1.883-1.29,1.883
			s-3.344,2.045-3.383,2.422c-0.05,0.377,0.245,0.672,0.245,0.672s1.754,1.836,2.208,1.951c0.471,0.135,1.345-0.453,1.345-0.453
			l5.688-3.047c0,0,2.711-2.18,4.805-0.123c2.084,2.049-0.762,4.551-0.762,4.551l-5.6,6.349c0,0-3.257,4.887-6.516,5.222
			c-3.479,0.357-6.599-2.674-6.599-2.674s-9.867-9.648-10.065-9.857c-0.209-0.203-0.417,0.127-0.417,0.127s-1.047,2.787-1.498,3.199
			c-0.472,0.422-1.3,0.594-1.3,0.594s-4.093,0.598-4.307,0.713c-0.206,0.136-0.335,0.963-0.335,0.963l-3.967,13.445h42.227V399.816
			L175.212,399.816z M62.677,312.528c5.312-2.466,11.644-0.164,14.074,5.169c1.587,3.495,0.928,4.795-1.317,5.894
			c0.354,0.829,0.548,1.746,0.548,2.706c0,3.87-3.128,6.99-6.983,6.99c-2.9,0-5.381-1.756-6.442-4.271
			c-2.153,0.72-3.798,0.444-5.058-2.418C55.118,321.247,57.355,314.979,62.677,312.528z M131.329,314.691
			c1.6-2.399,4.582-2.875,4.582-2.875s4.847-2.714,9.518,0.928c5.278,4.093,1.84,11.69,1.84,11.69s-1.036,6.643-1.384,7.516
			c-0.327,0.886-2.376,1.717-2.376,1.717s-1.159,0.295-2.464,0.337c-1.287,0.04-2.721-0.419-3.172-0.672
			c-0.581-0.311-0.67-1.419-0.67-1.419s-0.169-1.005-0.468-1.342c-0.281-0.325-3.17-0.462-5.074-3.798
			c-1.306-2.297-0.503-5.402-0.219-7.293C131.711,317.586,131.329,314.691,131.329,314.691z M174.386,305.53
			c-10.681-8.783-30.716-10.081-68.715-10.093c-37.785,0.012-57.767,1.356-68.442,10.152c-10.671,8.86-11.654,24.944-11.665,54.075
			c0.011,29.364,0.949,45.512,11.6,54.39c10.65,8.815,30.637,10.11,68.509,10.122c37.994-0.012,58.034-1.307,68.715-10.122
			c10.686-8.878,11.626-25.025,11.634-54.39C186.012,330.452,185.071,314.366,174.386,305.53z M118.979,375.581
			c1.781-4.146,1.367-8.133,0.963-10.164c-1.762,1.104-4.94,3.537-6.729,7.694c-1.776,4.125-1.633,8.675-1.38,11.163
			C113.816,382.75,117.205,379.717,118.979,375.581z M104.967,345.377v-23.21c-1.667,1.778-4.046,5.402-4.046,11.626
			C100.921,340.134,103.337,343.69,104.967,345.377z M100.499,383.321c0.226-2.49,0.298-7.042-1.521-11.146
			c-1.838-4.133-5.038-6.531-6.812-7.617c-0.386,2.044-0.768,6.04,1.062,10.165C95.06,378.827,98.5,381.82,100.499,383.321z
			 M107.367,322.782v21.992c1.567-1.868,3.508-5.309,3.508-10.981C110.875,328.212,108.965,324.725,107.367,322.782z"/>
	</g>
	<rect x="-3" fill="none" width="720" height="719.997"/>
</g>
</svg>
